<?xml version="1.0"?>
<svg width="1000" height="1000" xmlns="http://www.w3.org/2000/svg" xmlns:svg="http://www.w3.org/2000/svg">
 <metadata>IcoFont Icons</metadata>
 <title>halloween-pumpkin</title>
 <g class="layer">
  <title>Layer 1</title>
  <path d="m389.1,95.4c7.2,-18.3 31.3,-25.5 50.6,-10.6c14.8,11.6 28.2,25.7 40.6,40.2c8.9,10.5 24.8,20.6 19,36.9c-6.2,17.5 -25,15.9 -39.7,19c-33.2,1.3 -82.4,-54.9 -70.5,-85.5zm544.3,491.8c-19.6,142.7 -90.4,241.8 -206.2,307.7c-34.3,19.5 -70.5,23.7 -107.2,25.8c-38.4,2.2 -77.1,0.4 -115.7,0.4c-63.1,1.5 -126.4,7.3 -188.6,-10.8c-142.4,-41.5 -236.8,-172.2 -250.8,-348.1c-6.5,-81.4 -0.8,-160.8 31.7,-236c39.1,-90.5 108.6,-125.2 196.3,-133.8c81.3,-7.9 161.3,3.1 244.8,-18.7c232.2,-60.4 431.2,155.5 395.7,413.5zm-339.2,-239.3l113.5,147.2l90.1,-147.2l-203.6,0zm-135.3,255.7l153.4,0l-11.5,-25.1c-0.9,-2.5 -2.2,-5.5 -3.9,-8.7l-56.3,-122.9l-81.7,156.7zm-207.1,-255.7l106.3,152.2l97.9,-152.2l-204.2,0zm580.1,272.4c-37.2,16.7 -67.5,48.6 -108.5,52.4c-7.1,0.7 -10.6,6.3 -12,13.1c-8.5,40 -23.4,33.6 -46.5,11c-15.4,-15 -98.6,-2.4 -107.5,11.7c-19.9,31.6 -66.9,33.7 -83.3,1.4c-6.8,-13.6 -14.7,-16.5 -25.1,-15c-31.4,4.5 -66.1,-20.6 -94.9,14.9c-5.3,6.6 -28.3,10.1 -30.5,-14.6c-1,-10.4 -2,-21.1 -13.9,-22.5c-43.3,-4.5 -75.4,-35.8 -112.3,-57.2c1.6,90 59.1,169.3 143.8,201.6c22.2,8.5 38.8,13.4 52.1,-17.8c11.5,-27 33.2,-27 40.2,4.7c6.1,27.3 21.3,29.3 40.7,29.4c26.2,0.2 52.5,-0.3 78.7,0.4c23.3,0.7 39.9,-3.9 47.9,-33.6c8,-30.1 26,-24.3 38.6,-1.6c8.1,14.6 12.4,28.2 33.6,25.1c79.3,-11.4 160.5,-112.2 158.9,-203.4z" fill="#ff7f00" id="svg_1"/>
 </g>
</svg>